# LLaMA-Mesh generated
o llama-chair-docker
v -0.600000 -0.900000 -0.900000
v -0.600000 -0.900000 0.900000
v -0.600000 -0.014286 -0.471429
v -0.600000 -0.014286 0.900000
v -0.600000 0.900000 -0.900000
v -0.600000 0.900000 -0.471429
v 0.600000 -0.900000 -0.900000
v 0.600000 -0.900000 0.900000
v 0.600000 -0.014286 -0.471429
v 0.600000 -0.014286 0.900000
v 0.600000 0.900000 -0.900000
v 0.600000 0.900000 -0.471429
f 1 2 3
f 1 7 2
f 1 3 5
f 1 5 7
f 2 4 3
f 2 10 4
f 2 7 8
f 2 8 10
f 3 4 9
f 3 6 5
f 3 12 6
f 3 9 12
f 4 10 9
f 5 6 11
f 5 11 7
f 6 12 11
f 7 9 8
f 7 11 9
f 8 9 10
f 9 11 12
