# LLaMA-Mesh generated
o llama-chair2-docker
v -0.342857 -0.900000 -0.342857
v -0.342857 -0.900000 -0.285714
v -0.342857 -0.900000 0.285714
v -0.342857 -0.900000 0.342857
v -0.342857 -0.014286 -0.342857
v -0.342857 -0.014286 -0.285714
v -0.342857 -0.014286 0.285714
v -0.342857 -0.014286 0.342857
v -0.342857 0.071429 -0.285714
v -0.342857 0.071429 0.285714
v -0.342857 0.100000 -0.342857
v -0.342857 0.100000 0.342857
v -0.314286 0.185714 -0.285714
v -0.314286 0.185714 0.285714
v -0.314286 0.242857 -0.342857
v -0.314286 0.242857 0.342857
v -0.285714 -0.900000 -0.342857
v -0.285714 -0.900000 -0.285714
v -0.285714 -0.900000 0.285714
v -0.285714 -0.900000 0.342857
v -0.285714 -0.014286 -0.342857
v -0.285714 -0.014286 -0.285714
v -0.285714 -0.014286 0.285714
v -0.285714 -0.014286 0.342857
v -0.285714 0.071429 -0.342857
v -0.285714 0.071429 -0.285714
v -0.285714 0.071429 0.285714
v -0.285714 0.071429 0.342857
v -0.285714 0.185714 -0.285714
v -0.285714 0.185714 0.285714
v -0.285714 0.242857 -0.342857
v -0.285714 0.242857 0.342857
v -0.228571 0.242857 -0.342857
v -0.228571 0.242857 0.342857
v -0.171429 0.242857 -0.342857
v -0.171429 0.242857 0.342857
v -0.114286 0.785714 -0.342857
v -0.114286 0.785714 0.342857
v -0.057143 0.671429 -0.342857
v -0.057143 0.671429 0.342857
v 0.000000 0.500000 -0.342857
v 0.000000 0.500000 0.342857
v 0.000000 0.785714 -0.342857
v 0.000000 0.785714 0.342857
v 0.000000 0.900000 -0.285714
v 0.000000 0.900000 0.285714
v 0.057143 0.671429 -0.342857
v 0.057143 0.671429 0.342857
v 0.114286 0.785714 -0.342857
v 0.114286 0.785714 0.342857
v 0.171429 0.242857 -0.342857
v 0.171429 0.242857 0.342857
v 0.228571 0.242857 -0.342857
v 0.228571 0.242857 0.342857
v 0.285714 -0.900000 -0.342857
v 0.285714 -0.900000 -0.285714
v 0.285714 -0.900000 0.285714
v 0.285714 -0.900000 0.342857
v 0.285714 -0.014286 -0.342857
v 0.285714 -0.014286 -0.285714
v 0.285714 -0.014286 0.285714
v 0.285714 -0.014286 0.342857
v 0.285714 0.071429 -0.342857
v 0.285714 0.071429 -0.285714
v 0.285714 0.071429 0.285714
v 0.285714 0.071429 0.342857
v 0.285714 0.185714 -0.285714
v 0.285714 0.185714 0.285714
v 0.285714 0.242857 -0.342857
v 0.285714 0.242857 0.342857
v 0.314286 0.185714 -0.285714
v 0.314286 0.185714 0.285714
v 0.314286 0.242857 -0.342857
v 0.314286 0.242857 0.342857
v 0.342857 -0.900000 -0.342857
v 0.342857 -0.900000 -0.285714
v 0.342857 -0.900000 0.285714
v 0.342857 -0.900000 0.342857
v 0.342857 -0.014286 -0.342857
v 0.342857 -0.014286 -0.285714
v 0.342857 -0.014286 0.285714
v 0.342857 -0.014286 0.342857
v 0.342857 0.071429 -0.285714
v 0.342857 0.071429 0.285714
v 0.342857 0.100000 -0.342857
v 0.342857 0.100000 0.342857
f 1 2 6
f 1 18 2
f 1 6 5
f 1 5 17
f 1 17 18
f 2 22 6
f 2 18 22
f 3 4 7
f 3 19 4
f 3 7 23
f 3 23 19
f 4 8 7
f 4 20 8
f 4 19 20
f 5 6 11
f 5 11 25
f 5 21 17
f 5 25 21
f 6 7 10
f 6 23 7
f 6 10 9
f 6 9 11
f 6 22 23
f 7 8 10
f 8 12 10
f 8 28 12
f 8 20 24
f 8 24 28
f 9 10 13
f 9 13 11
f 10 12 14
f 10 14 13
f 11 13 15
f 11 15 31
f 11 31 25
f 12 16 14
f 12 32 16
f 12 28 32
f 13 14 29
f 13 31 15
f 13 29 31
f 14 16 32
f 14 30 29
f 14 32 30
f 17 21 18
f 18 21 22
f 19 24 20
f 19 23 24
f 21 26 22
f 21 25 26
f 22 26 23
f 23 27 24
f 23 26 27
f 24 27 28
f 25 31 26
f 25 63 26
f 25 31 33
f 25 33 35
f 25 35 41
f 25 41 63
f 26 30 27
f 26 29 30
f 26 31 29
f 26 67 29
f 26 63 64
f 26 64 67
f 27 32 28
f 27 65 28
f 27 30 32
f 27 30 65
f 28 34 32
f 28 36 34
f 28 42 36
f 28 66 42
f 28 65 66
f 29 45 30
f 29 67 45
f 30 45 46
f 30 46 68
f 30 68 65
f 31 33 37
f 31 37 39
f 31 39 41
f 32 38 34
f 32 40 38
f 32 42 40
f 33 35 37
f 34 38 36
f 35 41 37
f 36 38 42
f 37 41 39
f 38 40 42
f 41 49 43
f 41 43 51
f 41 51 49
f 41 51 63
f 42 44 50
f 42 52 44
f 42 50 52
f 42 66 52
f 43 49 47
f 43 47 51
f 44 48 50
f 44 52 48
f 45 68 46
f 45 67 68
f 47 49 53
f 47 53 51
f 48 54 50
f 48 52 54
f 49 51 53
f 50 54 52
f 51 53 69
f 51 69 63
f 52 70 54
f 52 66 70
f 53 69 71
f 53 85 69
f 53 71 85
f 54 72 70
f 54 70 86
f 54 86 72
f 55 56 60
f 55 76 56
f 55 60 59
f 55 59 75
f 55 75 76
f 56 80 60
f 56 76 80
f 57 58 61
f 57 77 58
f 57 61 81
f 57 81 77
f 58 62 61
f 58 78 62
f 58 77 78
f 59 60 63
f 59 63 79
f 59 79 75
f 60 61 64
f 60 80 61
f 60 64 63
f 61 62 65
f 61 65 64
f 61 80 81
f 62 66 65
f 62 82 66
f 62 78 82
f 63 69 85
f 63 85 79
f 64 65 67
f 65 68 67
f 66 86 70
f 66 82 86
f 67 72 68
f 67 68 72
f 67 71 72
f 67 72 71
f 69 73 71
f 69 85 73
f 70 72 74
f 70 74 86
f 71 84 72
f 71 72 84
f 71 73 85
f 71 83 84
f 71 84 83
f 72 86 74
f 72 84 86
f 72 86 84
f 75 79 76
f 76 79 80
f 77 82 78
f 77 81 82
f 79 83 80
f 79 85 83
f 80 83 81
f 81 84 82
f 81 83 84
f 82 84 86
