# LLaMA-Mesh generated
o chair
v -0.400000 -0.900000 -0.400000
v -0.400000 -0.900000 -0.285714
v -0.400000 -0.900000 0.285714
v -0.400000 -0.900000 0.400000
v -0.400000 -0.328571 -0.400000
v -0.400000 -0.328571 -0.285714
v -0.400000 -0.328571 0.285714
v -0.400000 -0.328571 0.400000
v -0.400000 -0.214286 -0.400000
v -0.400000 -0.214286 -0.285714
v -0.400000 -0.214286 0.285714
v -0.400000 -0.214286 0.400000
v -0.400000 0.900000 -0.400000
v -0.400000 0.900000 -0.285714
v -0.314286 -0.900000 -0.400000
v -0.314286 -0.900000 -0.285714
v -0.314286 -0.900000 0.285714
v -0.314286 -0.900000 0.400000
v -0.314286 -0.328571 -0.400000
v -0.314286 -0.328571 -0.285714
v -0.314286 -0.328571 0.285714
v -0.314286 -0.328571 0.400000
v -0.314286 -0.214286 -0.400000
v -0.314286 -0.214286 -0.285714
v -0.314286 -0.214286 0.285714
v -0.314286 -0.214286 0.400000
v -0.314286 0.900000 -0.400000
v -0.314286 0.900000 -0.285714
v 0.000000 -0.328571 -0.400000
v 0.000000 -0.328571 -0.285714
v 0.000000 -0.328571 0.285714
v 0.000000 -0.328571 0.400000
v 0.000000 -0.214286 -0.400000
v 0.000000 -0.214286 -0.285714
v 0.000000 -0.214286 0.285714
v 0.000000 -0.214286 0.400000
v 0.000000 0.900000 -0.400000
v 0.000000 0.900000 -0.285714
v 0.314286 -0.900000 -0.400000
v 0.314286 -0.900000 -0.285714
v 0.314286 -0.900000 0.285714
v 0.314286 -0.900000 0.400000
v 0.314286 -0.328571 -0.400000
v 0.314286 -0.328571 -0.285714
v 0.314286 -0.328571 0.285714
v 0.314286 -0.328571 0.400000
v 0.314286 -0.214286 -0.400000
v 0.314286 -0.214286 -0.285714
v 0.314286 -0.214286 0.285714
v 0.314286 -0.214286 0.400000
v 0.314286 0.900000 -0.400000
v 0.314286 0.900000 -0.285714
v 0.400000 -0.900000 -0.400000
v 0.400000 -0.900000 -0.285714
v 0.400000 -0.900000 0.285714
v 0.400000 -0.900000 0.400000
v 0.400000 -0.328571 -0.400000
v 0.400000 -0.328571 -0.285714
v 0.400000 -0.328571 0.285714
v 0.400000 -0.328571 0.400000
v 0.400000 -0.214286 -0.400000
v 0.400000 -0.214286 -0.285714
v 0.400000 -0.214286 0.285714
v 0.400000 -0.214286 0.400000
v 0.400000 0.900000 -0.400000
v 0.400000 0.900000 -0.285714
f 1 2 5
f 1 16 2
f 1 5 19
f 1 15 16
f 1 19 15
f 2 6 5
f 2 16 6
f 3 4 7
f 3 18 4
f 3 7 21
f 3 17 18
f 3 21 17
f 4 8 7
f 4 18 8
f 5 6 9
f 5 9 23
f 5 23 19
f 6 7 10
f 6 21 7
f 6 10 9
f 6 16 20
f 6 20 21
f 7 8 11
f 7 11 10
f 8 12 11
f 8 22 12
f 8 18 22
f 9 10 13
f 9 13 27
f 9 27 23
f 10 11 24
f 10 14 13
f 10 24 14
f 11 12 25
f 11 25 24
f 12 22 26
f 12 26 25
f 13 14 27
f 14 24 28
f 14 28 27
f 15 20 16
f 15 19 20
f 17 22 18
f 17 21 22
f 19 30 20
f 19 23 33
f 19 29 30
f 19 33 29
f 20 31 21
f 20 30 31
f 21 32 22
f 21 31 32
f 22 32 26
f 23 24 33
f 23 28 25
f 23 27 28
f 24 25 34
f 24 34 33
f 25 26 35
f 25 28 38
f 25 35 34
f 25 38 35
f 26 32 36
f 26 36 35
f 29 44 30
f 29 33 47
f 29 43 44
f 29 47 43
f 30 45 31
f 30 44 45
f 31 46 32
f 31 45 46
f 32 46 36
f 33 34 47
f 34 35 48
f 34 48 47
f 35 36 49
f 35 38 52
f 35 49 48
f 35 52 49
f 36 46 50
f 36 50 49
f 37 48 38
f 37 38 51
f 37 47 48
f 37 51 47
f 38 48 52
f 38 52 51
f 39 40 43
f 39 54 40
f 39 43 57
f 39 53 54
f 39 57 53
f 40 44 43
f 40 54 44
f 41 42 45
f 41 56 42
f 41 45 59
f 41 55 56
f 41 59 55
f 42 46 45
f 42 56 46
f 43 47 61
f 43 61 57
f 44 59 45
f 44 54 58
f 44 58 59
f 46 60 50
f 46 56 60
f 47 51 65
f 47 65 61
f 48 49 62
f 48 62 52
f 49 50 63
f 49 52 66
f 49 63 62
f 49 66 63
f 50 60 64
f 50 64 63
f 51 52 65
