# LLaMA-Mesh generated
o bass-drum
v -0.900000 0.428571 -0.314286
v -0.900000 0.428571 0.314286
v -0.900000 0.457143 0.000000
v -0.871429 0.428571 0.000000
v -0.871429 0.457143 -0.314286
v -0.871429 0.457143 -0.285714
v -0.871429 0.457143 0.000000
v -0.871429 0.457143 0.285714
v -0.871429 0.457143 0.314286
v -0.671429 0.371429 -0.457143
v -0.671429 0.371429 -0.428571
v -0.671429 0.371429 -0.400000
v -0.671429 0.371429 0.400000
v -0.671429 0.371429 0.428571
v -0.671429 0.371429 0.457143
v -0.642857 0.371429 -0.428571
v -0.642857 0.371429 0.428571
v -0.614286 0.371429 -0.428571
v -0.614286 0.371429 0.428571
v -0.585714 0.628571 -0.171429
v -0.585714 0.628571 0.171429
v -0.585714 0.657143 -0.171429
v -0.585714 0.657143 0.171429
v -0.557143 0.628571 -0.142857
v -0.557143 0.628571 0.142857
v -0.557143 0.657143 -0.142857
v -0.557143 0.657143 0.142857
v -0.528571 0.657143 -0.142857
v -0.528571 0.657143 0.142857
v -0.500000 0.342857 -0.542857
v -0.500000 0.342857 0.542857
v -0.471429 0.342857 -0.542857
v -0.471429 0.342857 -0.514286
v -0.471429 0.342857 0.514286
v -0.471429 0.342857 0.542857
v -0.442857 0.342857 -0.514286
v -0.442857 0.342857 0.514286
v -0.357143 0.314286 -0.571429
v -0.357143 0.314286 0.000000
v -0.357143 0.314286 0.571429
v -0.328571 -0.628571 -0.371429
v -0.328571 -0.628571 -0.342857
v -0.328571 -0.628571 -0.314286
v -0.328571 -0.628571 0.314286
v -0.328571 -0.628571 0.342857
v -0.328571 -0.628571 0.371429
v -0.328571 0.314286 -0.571429
v -0.328571 0.314286 -0.542857
v -0.328571 0.314286 0.542857
v -0.328571 0.314286 0.571429
v -0.300000 -0.628571 -0.314286
v -0.300000 -0.628571 0.314286
v -0.300000 0.314286 -0.542857
v -0.300000 0.314286 0.542857
v -0.271429 -0.657143 -0.371429
v -0.271429 -0.657143 0.371429
v -0.242857 -0.657143 -0.371429
v -0.242857 -0.657143 -0.342857
v -0.242857 -0.657143 0.342857
v -0.242857 -0.657143 0.371429
v -0.242857 -0.628571 -0.314286
v -0.242857 -0.628571 0.314286
v -0.242857 0.257143 -0.571429
v -0.242857 0.257143 -0.542857
v -0.242857 0.257143 0.542857
v -0.242857 0.257143 0.571429
v -0.214286 -0.628571 -0.342857
v -0.214286 -0.628571 0.342857
v -0.214286 0.257143 -0.542857
v -0.214286 0.257143 0.542857
v -0.128571 0.228571 -0.571429
v -0.128571 0.228571 -0.542857
v -0.128571 0.228571 0.542857
v -0.128571 0.228571 0.571429
v -0.128571 0.257143 -0.542857
v -0.128571 0.257143 0.542857
v -0.042857 0.228571 -0.542857
v -0.042857 0.228571 -0.514286
v -0.042857 0.228571 0.514286
v -0.042857 0.228571 0.542857
v -0.014286 0.228571 -0.571429
v -0.014286 0.228571 -0.542857
v -0.014286 0.228571 0.542857
v -0.014286 0.228571 0.571429
v 0.014286 0.200000 -0.485714
v 0.014286 0.200000 0.485714
v 0.042857 0.200000 -0.514286
v 0.042857 0.200000 -0.485714
v 0.042857 0.200000 0.485714
v 0.042857 0.200000 0.514286
v 0.042857 0.228571 -0.485714
v 0.042857 0.228571 0.485714
v 0.071429 0.200000 -0.514286
v 0.071429 0.200000 0.514286
v 0.071429 0.228571 -0.514286
v 0.071429 0.228571 -0.485714
v 0.071429 0.228571 0.485714
v 0.071429 0.228571 0.514286
v 0.100000 0.200000 -0.485714
v 0.100000 0.200000 0.485714
v 0.100000 0.228571 -0.485714
v 0.100000 0.228571 0.485714
v 0.185714 0.142857 -0.514286
v 0.185714 0.142857 0.514286
v 0.185714 0.171429 -0.485714
v 0.185714 0.171429 0.485714
v 0.214286 0.142857 -0.485714
v 0.214286 0.142857 0.485714
v 0.214286 0.171429 -0.485714
v 0.214286 0.171429 0.485714
v 0.242857 0.142857 -0.485714
v 0.242857 0.142857 0.485714
v 0.300000 0.114286 -0.485714
v 0.300000 0.114286 -0.457143
v 0.300000 0.114286 0.457143
v 0.300000 0.114286 0.485714
v 0.300000 0.142857 -0.457143
v 0.300000 0.142857 0.457143
v 0.442857 0.114286 -0.371429
v 0.442857 0.114286 0.371429
v 0.442857 0.142857 -0.371429
v 0.442857 0.142857 0.371429
v 0.471429 0.114286 -0.371429
v 0.471429 0.114286 0.371429
v 0.528571 0.057143 -0.285714
v 0.528571 0.057143 0.285714
v 0.528571 0.085714 -0.285714
v 0.528571 0.085714 0.285714
v 0.528571 0.114286 -0.342857
v 0.528571 0.114286 -0.314286
v 0.528571 0.114286 0.314286
v 0.528571 0.114286 0.342857
v 0.557143 0.057143 -0.314286
v 0.557143 0.057143 0.314286
v 0.585714 0.028571 -0.171429
v 0.585714 0.028571 0.171429
v 0.585714 0.057143 -0.171429
v 0.585714 0.057143 0.171429
v 0.585714 0.085714 -0.314286
v 0.585714 0.085714 -0.285714
v 0.585714 0.085714 0.285714
v 0.585714 0.085714 0.314286
v 0.614286 0.028571 -0.142857
v 0.614286 0.028571 0.142857
v 0.614286 0.057143 -0.142857
v 0.614286 0.057143 0.142857
v 0.642857 0.000000 0.000000
v 0.642857 0.028571 -0.171429
v 0.642857 0.028571 0.000000
v 0.642857 0.028571 0.171429
v 0.642857 0.057143 -0.171429
v 0.642857 0.057143 0.171429
v 0.671429 0.028571 -0.142857
v 0.671429 0.028571 0.142857
v 0.671429 0.057143 -0.142857
v 0.671429 0.057143 0.142857
v 0.700000 0.000000 0.000000
v 0.700000 0.028571 -0.171429
v 0.700000 0.028571 0.000000
v 0.700000 0.028571 0.171429
v 0.700000 0.057143 -0.171429
v 0.700000 0.057143 0.171429
v 0.728571 0.028571 -0.142857
v 0.728571 0.028571 0.142857
v 0.728571 0.057143 -0.142857
v 0.728571 0.057143 0.142857
v 0.757143 0.028571 -0.171429
v 0.757143 0.028571 -0.142857
v 0.757143 0.028571 0.142857
v 0.757143 0.028571 0.171429
v 0.757143 0.057143 -0.171429
v 0.757143 0.057143 -0.142857
v 0.757143 0.057143 0.142857
v 0.757143 0.057143 0.171429
v 0.785714 0.000000 0.000000
v 0.785714 0.028571 -0.171429
v 0.785714 0.028571 0.000000
v 0.785714 0.028571 0.171429
v 0.785714 0.057143 -0.171429
v 0.785714 0.057143 0.171429
v 0.814286 0.028571 -0.142857
v 0.814286 0.028571 0.142857
v 0.814286 0.057143 -0.142857
v 0.814286 0.057143 0.142857
v 0.842857 -0.457143 -0.314286
v 0.842857 -0.457143 -0.285714
v 0.842857 -0.457143 0.000000
v 0.842857 -0.457143 0.285714
v 0.842857 -0.457143 0.314286
v 0.842857 0.000000 0.000000
v 0.842857 0.028571 -0.142857
v 0.842857 0.028571 0.000000
v 0.842857 0.028571 0.142857
v 0.842857 0.057143 -0.142857
v 0.842857 0.057143 0.142857
v 0.871429 -0.457143 -0.314286
v 0.871429 -0.457143 -0.285714
v 0.871429 -0.457143 0.000000
v 0.871429 -0.457143 0.285714
v 0.871429 -0.457143 0.314286
v 0.871429 0.028571 -0.171429
v 0.871429 0.028571 0.000000
v 0.871429 0.028571 0.171429
v 0.871429 0.057143 -0.171429
v 0.871429 0.057143 0.171429
v 0.900000 0.028571 -0.171429
v 0.900000 0.028571 0.171429
f 1 4 3
f 1 3 7
f 1 6 4
f 1 5 6
f 1 7 5
f 2 3 4
f 2 7 3
f 2 4 8
f 2 9 7
f 2 8 9
f 3 4 25
f 3 25 4
f 3 25 7
f 3 7 25
f 4 6 11
f 4 14 8
f 4 18 10
f 4 10 39
f 4 15 19
f 4 39 15
f 4 11 18
f 4 19 14
f 4 21 25
f 4 25 21
f 4 39 21
f 4 21 39
f 5 11 6
f 5 7 16
f 5 16 11
f 7 9 17
f 7 24 16
f 7 17 25
f 7 25 24
f 8 14 9
f 9 14 17
f 10 18 32
f 10 32 30
f 10 30 39
f 11 16 18
f 12 18 16
f 12 16 24
f 12 33 18
f 12 24 20
f 12 20 33
f 13 17 19
f 13 25 17
f 13 19 34
f 13 21 25
f 13 34 21
f 14 19 17
f 15 35 19
f 15 31 35
f 15 39 31
f 18 33 32
f 19 35 34
f 20 24 22
f 20 22 28
f 20 28 39
f 20 39 33
f 21 23 25
f 21 29 23
f 21 39 29
f 21 34 39
f 22 24 26
f 22 26 28
f 23 27 25
f 23 29 27
f 24 25 26
f 25 27 26
f 26 27 28
f 27 29 28
f 28 29 39
f 30 32 38
f 30 38 39
f 31 40 35
f 31 39 40
f 32 33 38
f 33 36 38
f 33 48 36
f 33 39 48
f 34 35 40
f 34 37 49
f 34 49 37
f 34 49 39
f 34 40 49
f 36 47 38
f 36 48 47
f 38 47 39
f 39 50 40
f 39 47 48
f 39 49 50
f 40 50 49
f 41 55 42
f 41 42 64
f 41 71 55
f 41 64 63
f 41 63 71
f 42 51 43
f 42 43 64
f 42 55 51
f 43 51 64
f 44 52 45
f 44 45 65
f 44 65 52
f 45 52 46
f 45 46 65
f 46 52 56
f 46 56 74
f 46 66 65
f 46 74 66
f 47 48 53
f 47 53 48
f 48 53 69
f 48 69 53
f 48 69 64
f 48 64 69
f 49 54 50
f 49 50 54
f 49 70 54
f 49 54 70
f 49 65 70
f 49 70 65
f 51 55 58
f 51 58 61
f 51 61 72
f 51 72 64
f 52 59 56
f 52 62 59
f 52 73 62
f 52 65 73
f 53 75 69
f 53 69 75
f 54 70 76
f 54 76 70
f 55 57 58
f 55 71 57
f 56 59 60
f 56 60 74
f 57 71 58
f 58 67 61
f 58 78 67
f 58 71 78
f 59 74 60
f 59 62 68
f 59 68 79
f 59 79 74
f 61 67 78
f 61 78 72
f 62 79 68
f 62 73 79
f 63 64 72
f 63 72 71
f 64 69 72
f 64 72 69
f 65 66 73
f 65 73 70
f 65 70 73
f 66 74 73
f 69 75 72
f 69 72 75
f 70 73 76
f 70 76 73
f 71 72 78
f 71 78 72
f 71 72 78
f 72 75 78
f 72 78 75
f 73 74 79
f 73 79 76
f 73 76 79
f 74 79 73
f 74 73 79
f 74 79 73
f 75 77 78
f 75 78 77
f 76 79 80
f 76 80 79
f 77 82 78
f 77 78 82
f 78 82 85
f 78 85 82
f 79 83 80
f 79 80 83
f 79 86 83
f 79 83 86
f 81 87 82
f 81 82 87
f 82 88 85
f 82 85 88
f 82 87 88
f 82 88 87
f 83 90 84
f 83 84 90
f 83 86 89
f 83 89 86
f 83 89 90
f 83 90 89
f 84 90 98
f 84 98 90
f 87 93 88
f 87 88 93
f 88 99 91
f 88 91 99
f 88 93 99
f 88 99 93
f 89 94 90
f 89 90 94
f 89 92 100
f 89 100 92
f 89 100 94
f 89 94 100
f 91 99 96
f 91 96 99
f 92 97 100
f 92 100 97
f 93 95 99
f 93 99 95
f 94 100 98
f 94 98 100
f 95 101 99
f 95 99 101
f 96 99 101
f 96 101 99
f 97 102 100
f 97 100 102
f 99 101 105
f 99 105 101
f 99 105 107
f 99 107 105
