# LLaMA-Mesh generated
o floor-monitor
v -0.900000 -0.600000 -0.485714
v -0.900000 -0.600000 0.485714
v -0.900000 -0.428571 -0.485714
v -0.900000 -0.428571 0.485714
v -0.871429 -0.600000 -0.542857
v -0.871429 -0.600000 0.542857
v -0.871429 -0.428571 -0.542857
v -0.871429 -0.428571 0.542857
v -0.871429 -0.400000 -0.485714
v -0.871429 -0.400000 0.485714
v -0.842857 -0.400000 -0.542857
v -0.842857 -0.400000 0.542857
v -0.814286 -0.600000 -0.571429
v -0.814286 -0.600000 0.571429
v -0.814286 -0.428571 -0.571429
v -0.814286 -0.428571 0.571429
v -0.814286 -0.400000 -0.542857
v -0.814286 -0.400000 0.542857
v -0.785714 -0.428571 -0.571429
v -0.785714 -0.428571 0.571429
v -0.785714 -0.400000 -0.571429
v -0.785714 -0.400000 0.571429
v -0.757143 -0.428571 -0.600000
v -0.757143 -0.428571 0.600000
v -0.757143 -0.400000 -0.571429
v -0.757143 -0.400000 0.571429
v -0.728571 -0.428571 -0.600000
v -0.728571 -0.428571 0.600000
v 0.328571 -0.600000 -0.428571
v 0.328571 -0.600000 -0.371429
v 0.328571 -0.600000 0.371429
v 0.328571 -0.600000 0.428571
v 0.357143 -0.600000 -0.457143
v 0.357143 -0.600000 0.457143
v 0.385714 -0.600000 -0.485714
v 0.385714 -0.600000 0.485714
v 0.414286 -0.600000 -0.514286
v 0.414286 -0.600000 0.514286
v 0.414286 0.542857 -0.057143
v 0.414286 0.542857 0.057143
v 0.414286 0.600000 -0.057143
v 0.414286 0.600000 0.057143
v 0.442857 -0.600000 -0.542857
v 0.442857 -0.600000 0.542857
v 0.442857 0.542857 -0.171429
v 0.442857 0.542857 -0.142857
v 0.442857 0.542857 0.142857
v 0.442857 0.542857 0.171429
v 0.442857 0.600000 -0.171429
v 0.442857 0.600000 -0.142857
v 0.442857 0.600000 0.142857
v 0.442857 0.600000 0.171429
v 0.471429 0.542857 -0.228571
v 0.471429 0.542857 0.228571
v 0.471429 0.600000 -0.228571
v 0.471429 0.600000 0.228571
v 0.500000 -0.600000 -0.542857
v 0.500000 -0.600000 0.542857
v 0.500000 0.542857 -0.228571
v 0.500000 0.542857 0.228571
v 0.500000 0.600000 -0.228571
v 0.500000 0.600000 0.228571
v 0.528571 0.542857 -0.257143
v 0.528571 0.542857 0.257143
v 0.528571 0.600000 -0.257143
v 0.528571 0.600000 0.257143
v 0.557143 0.542857 -0.285714
v 0.557143 0.542857 0.285714
v 0.557143 0.600000 -0.285714
v 0.557143 0.600000 0.285714
v 0.585714 0.542857 -0.285714
v 0.585714 0.542857 0.285714
v 0.585714 0.600000 -0.285714
v 0.585714 0.600000 0.285714
v 0.614286 0.542857 -0.314286
v 0.614286 0.542857 0.314286
v 0.614286 0.600000 -0.314286
v 0.614286 0.600000 0.314286
v 0.642857 0.542857 -0.314286
v 0.642857 0.542857 0.314286
v 0.642857 0.600000 -0.314286
v 0.642857 0.600000 0.314286
v 0.671429 0.542857 -0.314286
v 0.671429 0.542857 0.314286
v 0.671429 0.600000 -0.314286
v 0.671429 0.600000 0.314286
v 0.700000 0.542857 -0.314286
v 0.700000 0.542857 0.314286
v 0.700000 0.600000 -0.314286
v 0.700000 0.600000 0.314286
v 0.728571 0.542857 -0.314286
v 0.728571 0.542857 0.314286
v 0.728571 0.600000 -0.314286
v 0.728571 0.600000 0.314286
v 0.757143 0.542857 -0.285714
v 0.757143 0.542857 0.285714
v 0.757143 0.600000 -0.285714
v 0.757143 0.600000 0.285714
v 0.785714 0.542857 -0.285714
v 0.785714 0.542857 0.285714
v 0.785714 0.600000 -0.285714
v 0.785714 0.600000 0.285714
v 0.814286 0.542857 -0.257143
v 0.814286 0.542857 0.257143
v 0.814286 0.600000 -0.257143
v 0.814286 0.600000 0.257143
v 0.842857 0.542857 -0.228571
v 0.842857 0.542857 0.228571
v 0.842857 0.600000 -0.228571
v 0.842857 0.600000 0.228571
v 0.871429 0.542857 -0.228571
v 0.871429 0.542857 0.228571
v 0.871429 0.600000 -0.228571
v 0.871429 0.600000 0.228571
v 0.900000 0.542857 -0.171429
v 0.900000 0.542857 -0.142857
v 0.900000 0.542857 0.142857
v 0.900000 0.542857 0.171429
v 0.900000 0.600000 -0.171429
v 0.900000 0.600000 -0.142857
v 0.900000 0.600000 0.142857
v 0.900000 0.600000 0.171429
f 1 2 3
f 1 30 2
f 1 3 5
f 1 5 29
f 1 29 30
f 2 4 3
f 2 6 4
f 2 32 6
f 2 30 31
f 2 31 32
f 3 4 10
f 3 7 5
f 3 9 7
f 3 10 9
f 4 6 8
f 4 8 12
f 4 12 10
f 5 7 13
f 5 13 29
f 6 16 8
f 6 14 16
f 6 32 14
f 7 9 11
f 7 11 15
f 7 15 13
f 8 18 12
f 8 16 18
f 9 10 40
f 9 39 11
f 9 40 39
f 10 12 47
f 10 47 40
f 11 17 15
f 11 46 17
f 11 39 46
f 12 18 48
f 12 48 47
f 13 15 19
f 13 19 23
f 13 23 27
f 13 27 33
f 13 33 29
f 14 20 16
f 14 24 20
f 14 28 24
f 14 34 28
f 14 32 34
f 15 17 21
f 15 21 19
f 16 20 18
f 17 45 21
f 17 46 45
f 18 20 22
f 18 22 54
f 18 54 48
f 19 21 25
f 19 25 23
f 20 24 22
f 21 53 25
f 21 45 53
f 22 24 26
f 22 26 60
f 22 60 54
f 23 25 27
f 24 28 26
f 25 59 27
f 25 53 59
f 26 28 64
f 26 64 60
f 27 35 33
f 27 43 35
f 27 63 43
f 27 59 63
f 28 34 36
f 28 36 38
f 28 38 64
f 29 35 30
f 29 33 35
f 30 35 31
f 31 34 32
f 31 36 34
f 31 35 36
f 35 38 36
f 35 37 38
f 35 43 37
f 37 44 38
f 37 43 44
f 38 44 64
f 39 40 42
f 39 42 41
f 39 41 46
f 40 51 42
f 40 47 51
f 41 42 51
f 41 50 46
f 41 51 50
f 43 58 44
f 43 57 58
f 43 63 57
f 44 58 68
f 44 68 64
f 45 46 50
f 45 50 49
f 45 49 53
f 47 48 52
f 47 52 51
f 48 56 52
f 48 54 56
f 49 50 52
f 49 52 56
f 49 55 53
f 49 56 55
f 50 51 52
f 53 55 59
f 54 62 56
f 54 60 62
f 55 56 62
f 55 61 59
f 55 62 61
f 57 72 58
f 57 63 67
f 57 67 71
f 57 71 72
f 58 72 68
f 59 61 63
f 60 66 62
f 60 64 66
f 61 62 66
f 61 65 63
f 61 66 65
f 63 65 67
f 64 70 66
f 64 68 70
f 65 66 70
f 65 69 67
f 65 70 69
f 67 69 71
f 68 74 70
f 68 72 74
f 69 70 74
f 69 73 71
f 69 74 73
f 71 92 72
f 71 73 75
f 71 75 79
f 71 79 83
f 71 83 91
f 71 91 95
f 71 95 92
f 72 78 74
f 72 76 78
f 72 80 76
f 72 84 80
f 72 92 84
f 73 74 93
f 73 77 75
f 73 81 77
f 73 85 81
f 73 89 85
f 73 93 89
f 74 78 82
f 74 82 86
f 74 86 90
f 74 90 94
f 74 97 93
f 74 94 98
f 74 98 97
f 75 77 79
f 76 82 78
f 76 80 82
f 77 81 79
f 79 81 83
f 80 86 82
f 80 84 86
f 81 85 83
f 83 85 87
f 83 87 91
f 84 90 86
f 84 88 90
f 84 92 88
f 85 89 87
f 87 89 91
f 88 94 90
f 88 92 94
f 89 93 91
f 91 93 95
f 92 98 94
f 92 95 96
f 92 96 98
f 93 97 95
f 95 99 96
f 95 97 99
f 96 102 98
f 96 99 100
f 96 100 102
f 97 98 102
f 97 101 99
f 97 102 101
f 99 103 100
f 99 101 103
f 100 106 102
f 100 103 104
f 100 104 106
f 101 102 106
f 101 105 103
f 101 106 105
f 103 107 104
f 103 105 107
f 104 110 106
f 104 107 108
f 104 108 110
f 105 106 110
f 105 109 107
f 105 110 109
f 107 111 108
f 107 109 111
f 108 114 110
f 108 111 112
f 108 112 114
f 109 110 114
f 109 113 111
f 109 114 113
f 111 115 112
f 111 113 115
f 112 122 114
f 112 115 118
f 112 118 122
f 113 114 122
f 113 119 115
f 113 122 119
f 115 116 118
f 115 119 116
f 116 117 118
f 116 120 117
f 116 119 120
f 117 121 118
f 117 120 121
f 118 121 122
f 119 121 120
f 119 122 121
