# LLaMA-Mesh generated
o guitar-amp
v -0.900000 -0.585714 -0.485714
v -0.900000 -0.585714 0.485714
v -0.900000 0.585714 -0.485714
v -0.900000 0.585714 0.485714
v -0.814286 0.157143 -0.457143
v -0.814286 0.157143 0.457143
v -0.814286 0.414286 -0.457143
v -0.814286 0.414286 0.457143
v -0.785714 -0.500000 -0.457143
v -0.785714 -0.500000 0.457143
v -0.785714 0.214286 -0.428571
v -0.785714 0.214286 0.428571
v -0.757143 0.128571 -0.428571
v -0.757143 0.128571 0.428571
v -0.728571 -0.300000 -0.400000
v -0.728571 -0.300000 0.400000
v -0.728571 0.157143 -0.457143
v -0.728571 0.157143 0.457143
v -0.728571 0.414286 -0.457143
v -0.728571 0.414286 0.457143
v -0.700000 -0.385714 -0.371429
v -0.700000 -0.385714 0.371429
v -0.671429 -0.442857 -0.342857
v -0.671429 -0.442857 0.342857
v -0.642857 -0.585714 -0.485714
v -0.642857 -0.585714 0.485714
v -0.642857 -0.500000 -0.457143
v -0.642857 -0.500000 0.457143
v -0.642857 0.214286 -0.428571
v -0.642857 0.214286 0.428571
v -0.614286 -0.185714 -0.314286
v -0.614286 -0.185714 0.314286
v -0.614286 0.128571 -0.428571
v -0.614286 0.128571 0.428571
v -0.585714 -0.271429 -0.285714
v -0.585714 -0.271429 0.285714
v -0.557143 -0.300000 -0.400000
v -0.557143 -0.300000 0.400000
v -0.528571 -0.385714 -0.371429
v -0.528571 -0.385714 0.371429
v -0.500000 -0.442857 -0.342857
v -0.500000 -0.442857 0.342857
v -0.471429 -0.128571 -0.200000
v -0.471429 -0.128571 0.200000
v -0.414286 -0.185714 -0.314286
v -0.414286 -0.185714 0.314286
v -0.385714 -0.271429 -0.285714
v -0.385714 -0.271429 0.285714
v -0.357143 -0.042857 -0.085714
v -0.357143 -0.042857 0.085714
v -0.357143 0.214286 -0.057143
v -0.357143 0.214286 0.057143
v -0.300000 -0.300000 -0.400000
v -0.300000 -0.300000 0.400000
v -0.300000 0.157143 -0.457143
v -0.300000 0.157143 -0.057143
v -0.300000 0.157143 0.057143
v -0.300000 0.157143 0.457143
v -0.300000 0.414286 -0.457143
v -0.300000 0.414286 0.457143
v -0.271429 -0.128571 -0.200000
v -0.271429 -0.128571 0.200000
v -0.242857 -0.042857 -0.085714
v -0.242857 -0.042857 0.085714
v -0.242857 0.214286 -0.057143
v -0.242857 0.214286 0.057143
v -0.214286 0.157143 -0.057143
v -0.214286 0.157143 0.057143
v -0.185714 0.100000 -0.028571
v -0.185714 0.100000 0.028571
v -0.185714 0.271429 -0.028571
v -0.185714 0.271429 0.028571
v -0.128571 0.100000 -0.028571
v -0.128571 0.100000 0.028571
v -0.128571 0.157143 -0.057143
v -0.128571 0.157143 0.057143
v -0.128571 0.271429 -0.028571
v -0.128571 0.271429 0.028571
v -0.100000 0.100000 -0.028571
v -0.100000 0.100000 0.028571
v -0.100000 0.271429 -0.028571
v -0.100000 0.271429 0.028571
v -0.071429 0.157143 -0.057143
v -0.071429 0.157143 0.057143
v -0.014286 0.157143 -0.457143
v -0.014286 0.157143 -0.057143
v -0.014286 0.157143 0.057143
v -0.014286 0.157143 0.457143
v -0.014286 0.214286 -0.057143
v -0.014286 0.214286 0.057143
v -0.014286 0.414286 -0.457143
v -0.014286 0.414286 0.457143
v 0.042857 0.157143 -0.057143
v 0.042857 0.157143 0.057143
v 0.071429 0.100000 -0.028571
v 0.071429 0.100000 0.028571
v 0.071429 0.271429 -0.028571
v 0.071429 0.271429 0.028571
v 0.100000 0.100000 -0.028571
v 0.100000 0.100000 0.028571
v 0.100000 0.157143 -0.057143
v 0.100000 0.157143 0.057143
v 0.100000 0.271429 -0.028571
v 0.100000 0.271429 0.028571
v 0.157143 0.100000 -0.028571
v 0.157143 0.100000 0.028571
v 0.157143 0.271429 -0.028571
v 0.157143 0.271429 0.028571
v 0.185714 0.157143 -0.057143
v 0.185714 0.157143 0.057143
v 0.214286 -0.042857 -0.085714
v 0.214286 -0.042857 0.085714
v 0.214286 0.214286 -0.057143
v 0.214286 0.214286 0.057143
v 0.242857 -0.128571 -0.200000
v 0.242857 -0.128571 0.200000
v 0.271429 -0.300000 -0.400000
v 0.271429 -0.300000 0.400000
v 0.271429 0.157143 -0.457143
v 0.271429 0.157143 -0.057143
v 0.271429 0.157143 0.057143
v 0.271429 0.157143 0.457143
v 0.271429 0.414286 -0.457143
v 0.271429 0.414286 0.457143
v 0.328571 -0.271429 -0.285714
v 0.328571 -0.271429 0.285714
v 0.357143 -0.185714 -0.314286
v 0.357143 -0.185714 0.314286
v 0.385714 -0.128571 -0.200000
v 0.385714 -0.128571 0.200000
v 0.442857 -0.042857 -0.085714
v 0.442857 -0.042857 0.085714
v 0.471429 -0.271429 -0.285714
v 0.471429 -0.271429 0.285714
v 0.500000 -0.185714 -0.314286
v 0.500000 -0.185714 0.314286
v 0.528571 -0.442857 -0.342857
v 0.528571 -0.442857 0.342857
v 0.557143 -0.385714 -0.371429
v 0.557143 -0.385714 0.371429
v 0.585714 -0.300000 -0.400000
v 0.585714 -0.300000 0.400000
v 0.585714 0.128571 -0.428571
v 0.585714 0.128571 0.428571
v 0.614286 -0.585714 -0.485714
v 0.614286 -0.585714 0.485714
v 0.614286 -0.500000 -0.457143
v 0.614286 -0.500000 0.457143
v 0.614286 0.214286 -0.428571
v 0.614286 0.214286 0.428571
v 0.642857 -0.442857 -0.342857
v 0.642857 -0.442857 0.342857
v 0.671429 -0.385714 -0.371429
v 0.671429 -0.385714 0.371429
v 0.700000 -0.300000 -0.400000
v 0.700000 -0.300000 0.400000
v 0.700000 0.157143 -0.457143
v 0.700000 0.157143 0.457143
v 0.700000 0.414286 -0.457143
v 0.700000 0.414286 0.457143
v 0.728571 0.128571 -0.428571
v 0.728571 0.128571 0.428571
v 0.757143 -0.500000 -0.457143
v 0.757143 -0.500000 0.457143
v 0.757143 0.214286 -0.428571
v 0.757143 0.214286 0.428571
v 0.785714 0.157143 -0.457143
v 0.785714 0.157143 0.457143
v 0.785714 0.414286 -0.457143
v 0.785714 0.414286 0.457143
v 0.900000 -0.585714 -0.485714
v 0.900000 -0.585714 0.485714
v 0.900000 0.585714 -0.485714
v 0.900000 0.585714 0.485714
f 1 2 4
f 1 171 2
f 1 4 3
f 1 3 173
f 1 173 171
f 2 174 4
f 2 171 172
f 2 172 174
f 3 4 173
f 4 174 173
f 5 6 8
f 5 17 6
f 5 8 7
f 5 7 19
f 5 19 17
f 6 18 8
f 6 17 18
f 7 8 19
f 8 18 20
f 8 20 19
f 9 10 12
f 9 27 10
f 9 12 11
f 9 11 29
f 9 29 27
f 10 28 12
f 10 27 28
f 11 12 29
f 12 28 30
f 12 30 29
f 13 14 16
f 13 33 14
f 13 16 15
f 13 15 37
f 13 37 33
f 14 34 16
f 14 33 34
f 15 16 37
f 16 34 38
f 16 38 37
f 17 55 18
f 17 19 59
f 17 59 55
f 18 58 20
f 18 55 58
f 19 20 60
f 19 60 59
f 20 58 60
f 21 23 22
f 21 22 39
f 21 39 23
f 22 23 24
f 22 24 42
f 22 40 39
f 22 42 40
f 23 42 24
f 23 39 41
f 23 41 42
f 25 26 28
f 25 145 26
f 25 28 27
f 25 27 149
f 25 149 145
f 26 146 28
f 26 145 146
f 27 29 149
f 28 146 30
f 29 30 32
f 29 32 31
f 29 31 149
f 30 150 32
f 30 146 150
f 31 32 45
f 31 45 149
f 32 46 45
f 32 150 46
f 33 45 34
f 33 37 53
f 33 53 45
f 34 54 38
f 34 45 46
f 34 46 54
f 35 36 44
f 35 47 36
f 35 44 43
f 35 43 47
f 36 48 44
f 36 47 48
f 37 38 54
f 37 54 53
f 39 40 42
f 39 42 41
f 43 44 61
f 43 61 47
f 44 48 62
f 44 62 61
f 45 53 149
f 46 150 54
f 47 61 48
f 48 61 62
f 49 50 52
f 49 63 50
f 49 52 51
f 49 51 65
f 49 65 63
f 50 64 52
f 50 63 64
f 51 52 65
f 52 64 66
f 52 66 65
f 53 54 117
f 53 117 149
f 54 118 117
f 54 150 118
f 55 88 58
f 55 59 85
f 55 85 88
f 56 57 68
f 56 67 63
f 56 68 67
f 57 64 68
f 58 92 60
f 58 88 92
f 59 60 91
f 59 91 85
f 60 92 91
f 63 68 64
f 63 67 68
f 69 70 72
f 69 74 70
f 69 72 71
f 69 71 73
f 69 73 74
f 70 78 72
f 70 74 78
f 71 72 77
f 71 77 73
f 72 78 77
f 73 77 74
f 74 77 78
f 75 84 76
f 75 76 87
f 75 83 84
f 75 86 83
f 75 87 86
f 76 84 87
f 79 80 82
f 79 96 80
f 79 82 81
f 79 81 95
f 79 95 96
f 80 98 82
f 80 96 98
f 81 82 97
f 81 97 95
f 82 98 97
f 83 86 84
f 84 86 87
f 85 119 88
f 85 91 123
f 85 123 119
f 88 122 92
f 88 119 122
f 89 93 90
f 89 90 113
f 89 113 93
f 90 93 94
f 90 94 110
f 90 110 114
f 90 114 113
f 91 92 124
f 91 124 123
f 92 122 124
f 93 110 94
f 93 109 110
f 93 113 109
f 95 97 96
f 96 97 98
f 99 100 104
f 99 106 100
f 99 104 103
f 99 103 105
f 99 105 106
f 100 108 104
f 100 106 108
f 101 102 109
f 101 111 102
f 101 109 111
f 102 110 109
f 102 121 110
f 102 111 112
f 102 112 121
f 103 104 107
f 103 107 105
f 104 108 107
f 105 107 106
f 106 107 108
f 109 120 111
f 109 113 120
f 110 121 114
f 111 131 112
f 111 120 131
f 112 132 121
f 112 131 132
f 113 114 132
f 113 131 120
f 113 132 131
f 114 121 132
f 115 125 116
f 115 116 129
f 115 129 125
f 116 125 126
f 116 126 134
f 116 130 129
f 116 134 130
f 117 118 142
f 117 142 127
f 117 127 149
f 118 150 142
f 119 157 122
f 119 123 159
f 119 159 157
f 122 158 124
f 122 157 158
f 123 124 159
f 124 158 160
f 124 160 159
f 125 134 126
f 125 129 133
f 125 133 134
f 127 128 130
f 127 136 128
f 127 130 129
f 127 129 149
f 127 135 136
f 127 142 135
f 128 150 130
f 128 136 150
f 129 130 133
f 129 130 149
f 130 134 133
f 130 150 149
f 135 142 136
f 136 142 150
f 137 138 139
f 137 151 138
f 137 139 151
f 138 140 139
f 138 154 140
f 138 151 152
f 138 152 154
f 139 140 154
f 139 153 151
f 139 154 153
f 141 143 142
f 141 142 155
f 141 155 143
f 142 143 144
f 142 144 162
f 142 156 155
f 142 162 156
f 143 161 144
