# LLaMA-Mesh generated
o keyboard-synth
v -0.900000 -0.257143 -0.800000
v -0.900000 -0.257143 -0.771429
v -0.900000 -0.257143 0.514286
v -0.900000 -0.142857 -0.800000
v -0.900000 -0.142857 -0.771429
v -0.900000 -0.057143 -0.800000
v -0.900000 -0.057143 -0.771429
v -0.900000 -0.057143 0.514286
v -0.900000 -0.057143 0.800000
v -0.900000 0.000000 -0.771429
v -0.900000 0.000000 0.514286
v -0.900000 0.000000 0.800000
v -0.900000 0.057143 -0.514286
v -0.900000 0.057143 -0.457143
v -0.900000 0.114286 -0.514286
v -0.900000 0.114286 -0.457143
v -0.871429 -0.257143 -0.800000
v -0.871429 -0.257143 -0.771429
v -0.871429 -0.257143 0.514286
v -0.871429 -0.142857 -0.800000
v -0.871429 -0.142857 -0.771429
v -0.871429 -0.057143 -0.771429
v -0.871429 -0.057143 0.514286
v -0.871429 0.000000 -0.771429
v -0.871429 0.000000 0.514286
v -0.871429 0.228571 -0.514286
v -0.871429 0.228571 -0.457143
v -0.842857 0.228571 -0.514286
v -0.842857 0.228571 -0.457143
v -0.814286 0.257143 -0.514286
v -0.814286 0.257143 -0.457143
v -0.757143 0.228571 -0.514286
v -0.757143 0.228571 -0.457143
v -0.728571 0.228571 -0.514286
v -0.728571 0.228571 -0.457143
v -0.671429 0.228571 -0.514286
v -0.671429 0.228571 -0.457143
v -0.642857 0.228571 -0.514286
v -0.642857 0.228571 -0.457143
v -0.585714 0.228571 -0.514286
v -0.585714 0.228571 -0.457143
v -0.557143 0.228571 -0.514286
v -0.557143 0.228571 -0.457143
v -0.500000 0.228571 -0.514286
v -0.500000 0.228571 -0.457143
v -0.442857 0.228571 -0.514286
v -0.442857 0.228571 -0.457143
v -0.385714 0.228571 -0.514286
v -0.385714 0.228571 -0.457143
v -0.357143 0.228571 -0.514286
v -0.357143 0.228571 -0.457143
v -0.300000 0.228571 -0.514286
v -0.300000 0.228571 -0.457143
v -0.242857 0.228571 -0.514286
v -0.242857 0.228571 -0.457143
v -0.185714 0.228571 -0.514286
v -0.185714 0.228571 -0.457143
v -0.157143 0.228571 -0.514286
v -0.157143 0.228571 -0.457143
v -0.100000 0.228571 -0.514286
v -0.100000 0.228571 -0.457143
v -0.071429 0.228571 -0.514286
v -0.071429 0.228571 -0.457143
v -0.014286 -0.257143 -0.800000
v -0.014286 -0.257143 -0.771429
v -0.014286 -0.257143 0.514286
v -0.014286 -0.142857 -0.800000
v -0.014286 -0.142857 -0.771429
v -0.014286 -0.057143 -0.771429
v -0.014286 -0.057143 0.514286
v -0.014286 0.000000 -0.771429
v -0.014286 0.000000 0.514286
v -0.014286 0.228571 -0.514286
v -0.014286 0.228571 -0.457143
v 0.042857 0.228571 -0.514286
v 0.042857 0.228571 -0.457143
v 0.071429 0.228571 -0.514286
v 0.071429 0.228571 -0.457143
v 0.128571 0.228571 -0.514286
v 0.128571 0.228571 -0.457143
v 0.157143 0.228571 -0.514286
v 0.157143 0.228571 -0.457143
v 0.214286 0.228571 -0.514286
v 0.214286 0.228571 -0.457143
v 0.271429 0.228571 -0.514286
v 0.271429 0.228571 -0.457143
v 0.328571 0.228571 -0.514286
v 0.328571 0.228571 -0.457143
v 0.357143 0.228571 -0.514286
v 0.357143 0.228571 -0.457143
v 0.414286 0.228571 -0.514286
v 0.414286 0.228571 -0.457143
v 0.471429 0.228571 -0.514286
v 0.471429 0.228571 -0.457143
v 0.528571 0.228571 -0.514286
v 0.528571 0.228571 -0.457143
v 0.557143 0.228571 -0.514286
v 0.557143 0.228571 -0.457143
v 0.614286 0.228571 -0.514286
v 0.614286 0.228571 -0.457143
v 0.642857 0.228571 -0.514286
v 0.642857 0.228571 -0.457143
v 0.700000 0.228571 -0.514286
v 0.700000 0.228571 -0.457143
v 0.728571 0.228571 -0.514286
v 0.728571 0.228571 -0.457143
v 0.785714 0.257143 -0.514286
v 0.785714 0.257143 -0.457143
v 0.814286 0.228571 -0.514286
v 0.814286 0.228571 -0.457143
v 0.842857 -0.257143 -0.800000
v 0.842857 -0.257143 -0.771429
v 0.842857 -0.257143 0.514286
v 0.842857 -0.142857 -0.800000
v 0.842857 -0.142857 -0.771429
v 0.842857 -0.057143 -0.771429
v 0.842857 -0.057143 0.514286
v 0.842857 0.000000 -0.771429
v 0.842857 0.000000 0.514286
v 0.842857 0.228571 -0.514286
v 0.842857 0.228571 -0.457143
v 0.900000 -0.257143 -0.800000
v 0.900000 -0.257143 -0.771429
v 0.900000 -0.257143 0.514286
v 0.900000 -0.142857 -0.800000
v 0.900000 -0.142857 -0.771429
v 0.900000 -0.057143 -0.800000
v 0.900000 -0.057143 -0.771429
v 0.900000 -0.057143 0.514286
v 0.900000 -0.057143 0.800000
v 0.900000 0.000000 -0.771429
v 0.900000 0.000000 0.514286
v 0.900000 0.000000 0.800000
v 0.900000 0.057143 -0.514286
v 0.900000 0.057143 -0.457143
v 0.900000 0.114286 -0.514286
v 0.900000 0.114286 -0.457143
f 1 2 5
f 1 17 2
f 1 5 4
f 1 4 20
f 1 20 17
f 2 3 8
f 2 18 3
f 2 21 5
f 2 8 7
f 2 17 18
f 2 18 21
f 3 23 8
f 3 18 19
f 3 19 23
f 4 5 7
f 4 7 6
f 4 6 20
f 5 22 7
f 5 21 22
f 6 7 127
f 6 22 20
f 6 69 22
f 6 116 69
f 6 128 116
f 6 127 128
f 7 8 10
f 7 10 24
f 7 24 22
f 7 22 127
f 8 9 11
f 8 130 9
f 8 11 10
f 8 23 11
f 8 23 70
f 8 70 117
f 8 117 129
f 8 129 130
f 9 12 11
f 9 133 12
f 9 130 133
f 10 11 26
f 10 71 24
f 10 26 28
f 10 28 30
f 10 30 32
f 10 32 34
f 10 34 36
f 10 36 38
f 10 38 40
f 10 40 42
f 10 42 44
f 10 44 46
f 10 46 48
f 10 48 50
f 10 50 52
f 10 52 54
f 10 54 56
f 10 56 58
f 10 58 60
f 10 60 62
f 10 62 73
f 10 73 71
f 11 12 133
f 11 23 25
f 11 25 72
f 11 27 26
f 11 29 27
f 11 31 29
f 11 33 31
f 11 35 33
f 11 37 35
f 11 39 37
f 11 41 39
f 11 43 41
f 11 45 43
f 11 47 45
f 11 49 47
f 11 51 49
f 11 53 51
f 11 55 53
f 11 57 55
f 11 59 57
f 11 61 59
f 11 63 61
f 11 74 63
f 11 72 74
f 11 133 132
f 13 14 15
f 13 135 14
f 13 15 136
f 13 134 135
f 13 136 134
f 14 16 15
f 14 137 16
f 14 135 137
f 15 16 136
f 16 137 136
f 17 64 18
f 17 20 64
f 18 65 19
f 18 65 21
f 18 64 65
f 19 66 23
f 19 65 66
f 20 22 67
f 20 67 64
f 21 68 22
f 21 65 68
f 22 24 69
f 22 69 67
f 22 68 69
f 22 69 127
f 23 70 25
f 23 66 70
f 24 71 69
f 25 70 72
f 26 27 29
f 26 29 28
f 28 29 31
f 28 31 30
f 30 31 33
f 30 33 32
f 32 33 35
f 32 35 34
f 34 35 37
f 34 37 36
f 36 37 39
f 36 39 38
f 38 39 41
f 38 41 40
f 40 41 43
f 40 43 42
f 42 43 45
f 42 45 44
f 44 45 47
f 44 47 46
f 46 47 49
f 46 49 48
f 48 49 51
f 48 51 50
f 50 51 53
f 50 53 52
f 52 53 55
f 52 55 54
f 54 55 57
f 54 57 56
f 56 57 59
f 56 59 58
f 58 59 61
f 58 61 60
f 60 61 63
f 60 63 62
f 62 63 74
f 62 74 73
f 64 111 65
f 64 67 111
f 65 112 66
f 65 112 68
f 65 111 112
f 66 113 70
f 66 112 113
f 67 69 114
f 67 114 111
f 68 115 69
f 68 112 115
f 69 71 116
f 69 116 114
f 69 115 116
f 69 116 127
f 70 117 72
f 70 113 117
f 71 73 118
f 71 118 116
f 72 119 74
f 72 117 119
f 73 74 76
f 73 76 75
f 73 75 118
f 74 132 76
f 74 119 132
f 75 76 78
f 75 78 77
f 75 77 118
f 76 132 78
f 77 78 80
f 77 80 79
f 77 79 118
f 78 132 80
f 79 80 82
f 79 82 81
f 79 81 118
f 80 132 82
f 81 82 84
f 81 84 83
f 81 83 118
f 82 132 84
f 83 84 86
f 83 86 85
f 83 85 118
f 84 132 86
f 85 86 88
f 85 88 87
f 85 87 118
f 86 132 88
f 87 88 90
f 87 90 89
f 87 89 118
f 88 132 90
f 89 90 92
f 89 92 91
f 89 91 118
f 90 132 92
f 91 92 94
f 91 94 93
f 91 93 118
f 92 132 94
f 93 94 96
f 93 96 95
f 93 95 118
f 94 132 96
f 95 96 98
f 95 98 97
f 95 97 118
f 96 132 98
f 97 98 100
f 97 100 99
f 97 99 118
f 98 132 100
f 99 100 102
f 99 102 101
f 99 101 118
f 100 132 102
f 101 102 104
f 101 104 103
f 101 103 118
f 102 132 104
f 103 104 106
f 103 106 105
f 103 105 118
f 104 132 106
f 105 106 108
f 105 108 107
f 105 107 118
f 106 132 108
f 107 108 110
f 107 110 109
f 107 109 118
f 108 132 110
f 109 110 121
f 109 120 118
f 109 121 120
f 110 132 121
f 111 122 112
f 111 114 122
f 112 123 113
f 112 123 115
f 112 122 123
f 113 124 117
f 113 123 124
f 114 116 125
f 114 125 122
f 115 126 116
f 115 123 126
f 116 118 128
f 116 128 125
f 116 126 128
f 116 128 127
f 117 129 119
f 117 124 129
f 117 129 128
f 118 120 131
f 118 131 128
f 119 129 132
f 120 121 132
f 120 132 131
f 122 125 123
f 123 128 124
f 123 125 126
f 124 128 129
f 125 128 126
f 128 132 129
f 128 131 132
f 129 133 130
f 129 132 133
f 134 137 135
f 134 136 137
