# LLaMA-Mesh generated
o mic-stand
v -0.314286 0.442857 0.000000
v -0.314286 0.471429 0.085714
v -0.314286 0.585714 0.085714
v -0.314286 0.642857 0.000000
v -0.285714 0.414286 0.000000
v -0.285714 0.442857 0.085714
v -0.285714 0.471429 -0.114286
v -0.285714 0.471429 0.114286
v -0.285714 0.500000 0.000000
v -0.285714 0.557143 -0.114286
v -0.285714 0.557143 0.114286
v -0.285714 0.614286 0.000000
v -0.285714 0.642857 -0.114286
v -0.285714 0.642857 0.085714
v -0.257143 -0.900000 -0.257143
v -0.257143 -0.900000 0.257143
v -0.257143 0.414286 0.000000
v -0.257143 0.442857 -0.114286
v -0.257143 0.471429 0.114286
v -0.257143 0.500000 -0.114286
v -0.257143 0.557143 0.000000
v -0.257143 0.585714 -0.114286
v -0.257143 0.614286 0.114286
v -0.257143 0.642857 0.000000
v -0.257143 0.671429 -0.114286
v -0.257143 0.671429 0.085714
v -0.257143 0.785714 -0.257143
v -0.257143 0.785714 0.257143
v -0.228571 0.757143 -0.228571
v -0.228571 0.757143 0.228571
v -0.228571 0.785714 -0.228571
v -0.228571 0.785714 0.228571
v -0.200000 0.442857 0.000000
v -0.200000 0.471429 -0.114286
v -0.200000 0.471429 0.085714
v -0.200000 0.585714 0.085714
v -0.200000 0.642857 0.000000
v -0.171429 0.471429 0.000000
v -0.171429 0.471429 0.085714
v -0.171429 0.557143 0.000000
v -0.171429 0.557143 0.085714
v -0.171429 0.642857 0.000000
v -0.171429 0.642857 0.085714
v -0.142857 0.500000 0.000000
v -0.142857 0.500000 0.057143
v -0.142857 0.614286 0.000000
v -0.142857 0.614286 0.057143
v -0.057143 0.814286 -0.057143
v -0.057143 0.814286 0.057143
v -0.057143 0.900000 -0.057143
v -0.057143 0.900000 0.057143
v -0.028571 0.842857 -0.028571
v -0.028571 0.842857 0.028571
v -0.028571 0.871429 -0.028571
v -0.028571 0.871429 0.028571
v 0.000000 0.814286 -0.057143
v 0.000000 0.814286 0.057143
v 0.000000 0.842857 -0.028571
v 0.000000 0.842857 0.028571
v 0.000000 0.871429 -0.028571
v 0.000000 0.871429 0.028571
v 0.000000 0.900000 -0.057143
v 0.000000 0.900000 0.057143
v 0.028571 0.842857 -0.028571
v 0.028571 0.842857 0.028571
v 0.028571 0.871429 -0.028571
v 0.028571 0.871429 0.028571
v 0.057143 0.814286 -0.057143
v 0.057143 0.814286 0.057143
v 0.057143 0.900000 -0.057143
v 0.057143 0.900000 0.057143
v 0.142857 0.500000 0.000000
v 0.142857 0.500000 0.057143
v 0.142857 0.614286 0.000000
v 0.142857 0.614286 0.057143
v 0.171429 0.471429 0.000000
v 0.171429 0.471429 0.085714
v 0.171429 0.557143 0.000000
v 0.171429 0.557143 0.085714
v 0.171429 0.642857 0.000000
v 0.171429 0.642857 0.085714
v 0.200000 0.442857 0.000000
v 0.200000 0.471429 -0.114286
v 0.200000 0.471429 0.085714
v 0.200000 0.585714 0.085714
v 0.200000 0.642857 0.000000
v 0.228571 0.757143 -0.228571
v 0.228571 0.757143 0.228571
v 0.228571 0.785714 -0.228571
v 0.228571 0.785714 0.228571
v 0.257143 -0.900000 -0.257143
v 0.257143 -0.900000 0.257143
v 0.257143 0.414286 0.000000
v 0.257143 0.442857 -0.114286
v 0.257143 0.471429 0.114286
v 0.257143 0.500000 -0.114286
v 0.257143 0.557143 0.000000
v 0.257143 0.585714 -0.114286
v 0.257143 0.614286 0.114286
v 0.257143 0.642857 0.000000
v 0.257143 0.671429 -0.114286
v 0.257143 0.671429 0.085714
v 0.257143 0.785714 -0.257143
v 0.257143 0.785714 0.257143
v 0.285714 0.414286 0.000000
v 0.285714 0.442857 0.085714
v 0.285714 0.471429 -0.114286
v 0.285714 0.471429 0.114286
v 0.285714 0.500000 0.000000
v 0.285714 0.557143 -0.114286
v 0.285714 0.557143 0.114286
v 0.285714 0.614286 0.000000
v 0.285714 0.642857 -0.114286
v 0.285714 0.642857 0.085714
v 0.314286 0.442857 0.000000
v 0.314286 0.471429 0.085714
v 0.314286 0.585714 0.085714
v 0.314286 0.642857 0.000000
f 1 2 3
f 1 5 2
f 1 3 4
f 1 4 7
f 1 18 5
f 1 7 18
f 2 11 3
f 2 5 6
f 2 6 8
f 2 8 11
f 3 14 4
f 3 11 23
f 3 23 14
f 4 10 7
f 4 13 10
f 4 14 13
f 5 17 6
f 5 18 17
f 6 19 8
f 6 17 35
f 6 35 19
f 7 10 20
f 7 34 18
f 7 20 34
f 8 23 11
f 8 19 23
f 9 12 22
f 9 21 33
f 9 34 21
f 9 22 34
f 10 13 22
f 10 22 20
f 12 37 22
f 12 24 37
f 13 14 26
f 13 25 22
f 13 26 25
f 14 23 36
f 14 36 26
f 15 16 27
f 15 27 103
f 15 103 91
f 16 28 27
f 16 92 28
f 17 18 34
f 17 34 33
f 17 33 35
f 19 36 23
f 19 35 36
f 20 22 37
f 20 37 34
f 21 40 33
f 21 34 40
f 22 25 37
f 25 26 37
f 26 36 37
f 27 28 31
f 27 31 89
f 27 89 103
f 28 32 31
f 28 104 32
f 28 92 104
f 29 31 30
f 29 30 88
f 29 89 31
f 29 88 87
f 29 87 89
f 30 31 32
f 30 32 88
f 32 90 88
f 32 104 90
f 33 34 37
f 33 40 35
f 35 40 36
f 36 40 37
f 38 39 41
f 38 44 39
f 38 41 40
f 38 40 44
f 39 45 41
f 39 44 45
f 40 41 43
f 40 43 42
f 40 42 46
f 40 46 44
f 41 47 43
f 41 45 47
f 42 43 47
f 42 47 46
f 44 46 45
f 45 46 47
f 48 49 50
f 48 57 49
f 48 50 56
f 48 56 57
f 49 51 50
f 49 63 51
f 49 57 63
f 50 51 62
f 50 62 56
f 51 63 62
f 52 53 54
f 52 59 53
f 52 54 60
f 52 58 59
f 52 60 58
f 53 55 54
f 53 59 55
f 54 55 60
f 55 59 61
f 55 61 60
f 56 69 57
f 56 62 68
f 56 68 69
f 57 71 63
f 57 69 71
f 58 65 59
f 58 60 66
f 58 64 65
f 58 66 64
f 59 65 61
f 60 61 66
f 61 65 67
f 61 67 66
f 62 63 70
f 62 70 68
f 63 71 70
f 64 67 65
f 64 66 67
f 68 71 69
f 68 70 71
f 72 73 74
f 72 77 73
f 72 74 78
f 72 76 77
f 72 78 76
f 73 75 74
f 73 79 75
f 73 77 79
f 74 75 80
f 74 80 78
f 75 79 81
f 75 81 80
f 76 79 77
f 76 78 79
f 78 81 79
f 78 80 81
f 78 82 84
f 78 97 82
f 78 86 83
f 78 83 96
f 78 84 85
f 78 85 86
f 78 96 97
f 82 93 84
f 82 109 93
f 82 97 109
f 83 86 98
f 83 94 96
f 83 107 94
f 83 98 107
f 84 95 85
f 84 93 106
f 84 106 95
f 85 102 86
f 85 95 99
f 85 99 102
f 86 112 98
f 86 102 100
f 86 100 112
f 87 88 90
f 87 90 89
f 89 90 103
f 90 104 103
f 91 104 92
f 91 103 104
f 93 105 106
f 93 115 105
f 93 109 115
f 94 109 96
f 94 107 105
f 94 105 109
f 95 108 99
f 95 106 108
f 96 112 97
f 96 109 112
f 97 112 109
f 98 110 107
f 98 113 110
f 98 112 113
f 99 114 102
f 99 108 111
f 99 111 114
f 100 102 101
f 100 101 113
f 100 113 112
f 101 102 114
f 101 114 113
f 105 116 106
f 105 107 115
f 105 115 116
f 106 116 108
f 107 110 115
f 108 117 111
f 108 116 117
f 110 113 118
f 110 118 115
f 111 117 114
f 113 114 117
f 113 117 118
f 115 118 116
f 116 118 117
