# LLaMA-Mesh generated
o stage-speaker
v -0.485714 -0.900000 -0.257143
v -0.485714 -0.900000 0.257143
v -0.485714 -0.871429 -0.342857
v -0.485714 -0.871429 0.342857
v -0.485714 -0.814286 -0.400000
v -0.485714 -0.814286 -0.371429
v -0.485714 -0.814286 0.371429
v -0.485714 -0.814286 0.400000
v -0.485714 0.842857 -0.400000
v -0.485714 0.842857 -0.371429
v -0.485714 0.842857 0.371429
v -0.485714 0.842857 0.400000
v -0.485714 0.900000 -0.342857
v -0.485714 0.900000 0.342857
v -0.485714 0.900000 0.371429
v -0.457143 -0.900000 -0.314286
v -0.457143 -0.900000 -0.257143
v -0.457143 -0.900000 0.257143
v -0.457143 -0.900000 0.314286
v -0.457143 -0.871429 -0.342857
v -0.457143 -0.871429 0.342857
v -0.457143 -0.814286 -0.400000
v -0.457143 -0.814286 0.400000
v -0.457143 -0.042857 -0.400000
v -0.457143 -0.042857 0.400000
v -0.457143 -0.014286 -0.400000
v -0.457143 -0.014286 0.400000
v -0.457143 0.842857 -0.400000
v -0.457143 0.842857 0.400000
v -0.457143 0.900000 -0.342857
v -0.457143 0.900000 0.342857
v -0.428571 -0.900000 -0.314286
v -0.428571 -0.900000 0.314286
v -0.428571 -0.871429 -0.342857
v -0.428571 -0.871429 0.342857
v -0.428571 0.842857 -0.400000
v -0.428571 0.842857 0.400000
v -0.428571 0.900000 -0.342857
v -0.428571 0.900000 0.342857
v -0.285714 -0.814286 -0.400000
v -0.285714 -0.814286 0.400000
v -0.285714 -0.042857 -0.400000
v -0.285714 -0.042857 0.400000
v -0.285714 -0.014286 -0.400000
v -0.285714 -0.014286 0.400000
v -0.171429 -0.328571 -0.400000
v -0.171429 -0.328571 0.400000
v -0.171429 0.271429 -0.400000
v -0.171429 0.271429 0.400000
v -0.142857 -0.328571 -0.400000
v -0.142857 -0.328571 0.400000
v -0.142857 -0.242857 -0.400000
v -0.142857 -0.242857 0.400000
v -0.142857 0.185714 -0.400000
v -0.142857 0.185714 0.400000
v -0.142857 0.271429 -0.400000
v -0.142857 0.271429 0.400000
v -0.028571 -0.814286 -0.400000
v -0.028571 -0.814286 0.400000
v -0.028571 -0.328571 -0.400000
v -0.028571 -0.328571 0.400000
v -0.028571 -0.242857 -0.400000
v -0.028571 -0.242857 0.400000
v -0.028571 -0.042857 -0.400000
v -0.028571 -0.042857 0.400000
v -0.028571 -0.014286 -0.400000
v -0.028571 -0.014286 0.400000
v -0.028571 0.185714 -0.400000
v -0.028571 0.185714 0.400000
v -0.028571 0.271429 -0.400000
v -0.028571 0.271429 0.400000
v -0.028571 0.842857 -0.400000
v -0.028571 0.842857 0.400000
v -0.028571 0.900000 -0.342857
v -0.028571 0.900000 0.342857
v 0.000000 -0.900000 -0.314286
v 0.000000 -0.900000 -0.257143
v 0.000000 -0.900000 0.257143
v 0.000000 -0.900000 0.314286
v 0.000000 -0.871429 -0.342857
v 0.000000 -0.871429 0.342857
v 0.028571 -0.900000 -0.314286
v 0.028571 -0.900000 -0.257143
v 0.028571 -0.900000 0.257143
v 0.028571 -0.900000 0.314286
v 0.028571 -0.871429 -0.342857
v 0.028571 -0.871429 0.342857
v 0.114286 -0.814286 -0.400000
v 0.114286 -0.814286 0.400000
v 0.114286 -0.014286 -0.400000
v 0.114286 -0.014286 0.400000
v 0.114286 0.842857 -0.400000
v 0.114286 0.842857 0.400000
v 0.114286 0.900000 -0.342857
v 0.114286 0.900000 0.342857
v 0.228571 -0.500000 -0.114286
v 0.228571 -0.500000 0.114286
v 0.228571 -0.442857 -0.114286
v 0.228571 -0.442857 0.114286
v 0.228571 -0.328571 -0.400000
v 0.228571 -0.328571 0.400000
v 0.228571 -0.242857 -0.400000
v 0.228571 -0.242857 0.400000
v 0.228571 -0.042857 -0.400000
v 0.228571 -0.042857 0.400000
v 0.228571 -0.014286 -0.400000
v 0.228571 -0.014286 0.400000
v 0.228571 0.185714 -0.400000
v 0.228571 0.185714 0.400000
v 0.228571 0.271429 -0.400000
v 0.228571 0.271429 0.400000
v 0.228571 0.385714 -0.114286
v 0.228571 0.385714 0.114286
v 0.228571 0.442857 -0.114286
v 0.228571 0.442857 0.114286
v 0.257143 -0.500000 -0.114286
v 0.257143 -0.500000 0.114286
v 0.257143 -0.442857 -0.114286
v 0.257143 -0.442857 0.114286
v 0.257143 0.385714 -0.114286
v 0.257143 0.385714 0.114286
v 0.257143 0.442857 -0.114286
v 0.257143 0.442857 0.114286
v 0.285714 -0.814286 -0.400000
v 0.285714 -0.814286 0.400000
v 0.285714 -0.014286 -0.400000
v 0.285714 -0.014286 0.400000
v 0.285714 0.842857 -0.400000
v 0.285714 0.842857 0.400000
v 0.285714 0.900000 -0.342857
v 0.285714 0.900000 0.342857
v 0.428571 -0.900000 -0.314286
v 0.428571 -0.900000 -0.257143
v 0.428571 -0.900000 0.257143
v 0.428571 -0.900000 0.314286
v 0.428571 -0.871429 -0.342857
v 0.428571 -0.871429 0.342857
v 0.428571 0.842857 -0.400000
v 0.428571 0.842857 0.400000
v 0.428571 0.900000 -0.342857
v 0.428571 0.900000 0.342857
v 0.457143 -0.900000 -0.314286
v 0.457143 -0.900000 -0.257143
v 0.457143 -0.900000 0.257143
v 0.457143 -0.900000 0.314286
v 0.457143 -0.871429 -0.342857
v 0.457143 -0.871429 0.342857
v 0.457143 -0.814286 -0.400000
v 0.457143 -0.814286 -0.371429
v 0.457143 -0.814286 0.371429
v 0.457143 -0.814286 0.400000
v 0.457143 0.842857 -0.400000
v 0.457143 0.842857 -0.371429
v 0.457143 0.842857 0.371429
v 0.457143 0.842857 0.400000
v 0.457143 0.900000 -0.342857
v 0.457143 0.900000 0.342857
v 0.485714 -0.900000 -0.314286
v 0.485714 -0.900000 -0.257143
v 0.485714 -0.900000 0.257143
v 0.485714 -0.900000 0.314286
v 0.485714 -0.871429 -0.342857
v 0.485714 -0.871429 0.342857
v 0.485714 -0.814286 -0.400000
v 0.485714 -0.814286 -0.371429
v 0.485714 -0.814286 0.371429
v 0.485714 -0.814286 0.400000
v 0.485714 0.842857 -0.400000
v 0.485714 0.842857 -0.371429
v 0.485714 0.842857 0.371429
v 0.485714 0.842857 0.400000
v 0.485714 0.900000 -0.342857
v 0.485714 0.900000 0.342857
f 1 2 7
f 1 17 2
f 1 6 3
f 1 3 16
f 1 10 6
f 1 7 10
f 1 16 32
f 1 32 17
f 2 4 7
f 2 18 4
f 2 17 18
f 3 6 5
f 3 5 22
f 3 20 16
f 3 22 20
f 4 8 7
f 4 21 8
f 4 18 19
f 4 19 21
f 5 6 9
f 5 9 24
f 5 24 22
f 6 10 9
f 7 8 11
f 7 11 10
f 8 12 11
f 8 25 12
f 8 21 23
f 8 23 25
f 9 10 13
f 9 13 30
f 9 28 24
f 9 30 28
f 10 11 13
f 11 12 15
f 11 15 13
f 12 14 15
f 12 29 14
f 12 25 27
f 12 27 29
f 13 15 14
f 13 14 30
f 14 29 31
f 14 31 30
f 16 20 34
f 16 34 32
f 17 78 18
f 17 32 76
f 17 76 77
f 17 77 78
f 18 78 19
f 19 33 21
f 19 79 33
f 19 78 79
f 20 22 40
f 20 40 34
f 21 35 23
f 21 33 35
f 22 24 42
f 22 42 40
f 23 41 25
f 23 35 41
f 24 28 26
f 24 26 44
f 24 44 42
f 25 27 29
f 25 29 27
f 25 43 27
f 25 41 43
f 26 28 36
f 26 36 44
f 27 45 29
f 27 43 45
f 28 30 38
f 28 38 36
f 29 37 31
f 29 45 37
f 30 31 74
f 30 74 38
f 31 37 39
f 31 39 75
f 31 75 74
f 32 34 80
f 32 80 76
f 33 79 35
f 34 40 58
f 34 58 80
f 35 81 41
f 35 79 81
f 36 38 74
f 36 72 44
f 36 74 72
f 37 73 39
f 37 45 67
f 37 67 73
f 39 73 75
f 40 42 64
f 40 64 58
f 41 59 43
f 41 81 59
f 42 44 66
f 42 66 64
f 43 65 45
f 43 59 65
f 44 72 66
f 45 65 67
f 46 47 51
f 46 61 47
f 46 51 50
f 46 50 60
f 46 60 61
f 47 61 51
f 48 57 49
f 48 49 70
f 48 56 57
f 48 70 56
f 49 57 71
f 49 71 70
f 50 51 53
f 50 53 52
f 50 52 62
f 50 62 60
f 51 63 53
f 51 61 63
f 52 53 62
f 53 63 62
f 54 55 57
f 54 68 55
f 54 57 56
f 54 56 68
f 55 69 57
f 55 68 69
f 56 70 68
f 57 69 71
f 58 64 100
f 58 100 80
f 59 101 65
f 59 81 101
f 60 100 61
f 60 62 102
f 60 102 100
f 61 103 63
f 61 100 101
f 61 101 103
f 62 63 103
f 62 103 102
f 64 66 106
f 64 104 100
f 64 106 104
f 65 105 67
f 65 101 105
f 66 72 92
f 66 92 90
f 66 90 106
f 67 91 73
f 67 107 91
f 67 105 107
f 68 109 69
f 68 70 108
f 68 108 109
f 69 109 71
f 70 71 111
f 70 110 108
f 70 111 110
f 71 109 111
f 72 74 94
f 72 94 92
f 73 93 75
f 73 91 93
f 74 75 95
f 74 95 94
f 75 93 95
f 76 82 77
f 76 80 86
f 76 86 82
f 77 84 78
f 77 82 83
f 77 83 84
f 78 84 79
f 79 85 81
f 79 84 85
f 80 124 86
f 80 100 124
f 81 85 87
f 81 87 101
f 82 132 83
f 82 86 136
f 82 136 132
f 83 96 84
f 83 116 96
f 83 133 116
f 83 132 133
f 84 134 85
f 84 96 97
f 84 97 134
f 85 135 87
f 85 134 135
f 86 124 148
f 86 148 136
f 87 125 101
f 87 137 125
f 87 135 137
f 88 89 91
f 88 102 89
f 88 91 90
f 88 90 102
f 89 103 91
f 89 102 103
f 90 91 102
f 90 93 91
f 90 91 106
f 90 92 93
f 90 92 138
f 90 126 102
f 90 138 126
f 91 103 102
f 91 127 106
f 91 107 127
f 92 95 93
f 92 93 95
f 92 94 95
f 92 94 130
f 92 130 128
f 92 128 138
f 93 129 95
f 94 95 131
f 94 131 130
f 95 129 131
f 96 99 97
f 96 98 99
f 96 116 98
f 97 99 119
f 97 119 117
f 97 117 134
f 98 119 99
f 98 116 118
f 98 118 119
f 100 104 101
f 100 101 111
f 100 102 104
f 100 104 102
f 100 102 126
f 100 111 110
f 100 110 126
f 100 126 124
f 101 104 105
f 101 105 107
f 101 125 105
f 101 107 111
f 104 111 105
f 104 106 111
f 105 111 107
f 105 127 107
f 105 125 127
f 106 109 108
f 106 108 110
f 106 110 111
f 106 127 126
f 110 111 127
f 110 127 126
f 111 129 127
f 111 127 129
f 112 113 115
